<svg width="545" height="545" viewBox="0 0 545 545" fill="none" xmlns="http://www.w3.org/2000/svg">
<g filter="url(#filter0_di_209_125)">
<circle cx="272.5" cy="272.5" r="232.5" fill="url(#paint0_linear_209_125)"/>
</g>
<path d="M170.483 191.919C171.84 194.337 173.375 197.036 175.087 200.015C176.828 202.964 178.673 206.09 180.62 209.393C182.568 212.667 184.59 216.059 186.685 219.568C188.81 223.078 190.95 226.602 193.104 230.141C195.288 233.68 197.442 237.175 199.567 240.626C201.692 244.077 203.743 247.394 205.721 250.58C207.728 253.735 209.616 256.699 211.387 259.472C213.187 262.244 214.81 264.721 216.257 266.904C216.257 259 216.271 251.804 216.301 245.315C216.33 238.827 216.389 232.973 216.478 227.752C216.566 222.532 216.67 217.902 216.788 213.861C216.906 209.791 217.053 206.237 217.23 203.2C217.437 200.132 217.658 197.537 217.895 195.414C218.16 193.261 218.455 191.491 218.78 190.105C219.046 188.925 219.414 187.952 219.887 187.185C220.388 186.389 220.949 185.755 221.569 185.283C222.218 184.811 222.912 184.487 223.649 184.31C224.417 184.103 225.214 184 226.04 184C228.017 184 230.068 184.428 232.193 185.283V185.725C230.747 187.76 229.493 190.415 228.43 193.688C227.398 196.962 226.512 200.604 225.774 204.615C225.037 208.597 224.432 212.8 223.959 217.223C223.517 221.647 223.162 226.042 222.897 230.407C222.631 234.742 222.425 238.915 222.277 242.926C222.159 246.937 222.056 250.521 221.967 253.676C221.908 256.449 221.849 259.162 221.79 261.816C221.731 264.441 221.672 267.081 221.613 269.735C221.584 272.36 221.554 275.029 221.525 277.742C221.495 280.426 221.48 283.199 221.48 286.059L216.08 286.767L215.283 286.679C214.397 285.44 213.261 283.788 211.874 281.724C210.516 279.63 208.982 277.241 207.27 274.557C205.558 271.873 203.699 268.939 201.692 265.754C199.715 262.568 197.649 259.251 195.495 255.8C193.37 252.349 191.201 248.825 188.987 245.227C186.774 241.629 184.575 238.06 182.391 234.521C180.237 230.982 178.127 227.531 176.061 224.169C174.024 220.807 172.106 217.651 170.306 214.702C168.506 211.723 166.868 209.01 165.392 206.562C163.916 204.114 162.662 202.035 161.629 200.324C161.57 206.842 161.467 213.198 161.319 219.391C161.201 225.555 161.039 231.483 160.832 237.175C160.626 242.867 160.39 248.279 160.124 253.411C159.888 258.513 159.622 263.262 159.327 267.656C159.121 270.753 158.899 273.392 158.663 275.575C158.457 277.757 158.191 279.586 157.866 281.06C157.571 282.506 157.188 283.656 156.715 284.511C156.273 285.366 155.712 286 155.033 286.413C154.354 286.856 153.543 287.136 152.598 287.254C151.654 287.372 150.533 287.431 149.234 287.431H148.039C147.803 287.431 147.507 287.416 147.153 287.387C146.799 287.387 146.342 287.372 145.781 287.342L145.161 286.9C146.43 284.039 147.552 280.839 148.526 277.3C149.529 273.761 150.4 270.015 151.138 266.063C151.875 262.082 152.51 257.982 153.041 253.765C153.602 249.518 154.059 245.271 154.413 241.024C154.768 236.777 155.048 232.604 155.254 228.504C155.491 224.375 155.668 220.453 155.786 216.737C155.904 213.021 155.978 209.57 156.007 206.385C156.037 203.2 156.051 200.427 156.051 198.068C156.051 196.8 155.948 195.723 155.741 194.839C155.564 193.924 155.21 193.187 154.679 192.627C154.177 192.037 153.484 191.609 152.598 191.344C151.713 191.078 150.562 190.946 149.145 190.946C148.142 190.946 147.006 191.005 145.737 191.122C144.497 191.24 143.081 191.417 141.487 191.653L141 187.76C143.479 187.2 145.722 186.699 147.729 186.256C149.736 185.814 151.551 185.445 153.174 185.15C154.797 184.855 156.258 184.634 157.556 184.487C158.885 184.31 160.08 184.221 161.142 184.221C162.234 184.221 163.179 184.354 163.975 184.619C164.802 184.885 165.554 185.312 166.233 185.902C166.941 186.492 167.62 187.288 168.269 188.291C168.948 189.264 169.686 190.474 170.483 191.919Z" fill="white"/>
<path d="M284.961 272.345C285.138 272.434 285.36 272.566 285.625 272.743C285.921 272.891 286.186 273.068 286.422 273.274C286.658 273.451 286.865 273.658 287.042 273.894C287.219 274.1 287.308 274.307 287.308 274.513C287.308 274.631 287.263 274.749 287.175 274.867C285.522 277.167 283.737 279.173 281.818 280.883C279.93 282.564 277.952 283.98 275.886 285.13C273.85 286.251 271.769 287.077 269.644 287.608C267.52 288.168 265.424 288.448 263.358 288.448C259.817 288.448 256.571 287.726 253.619 286.281C250.668 284.835 248.13 282.859 246.005 280.353C243.88 277.846 242.213 274.911 241.003 271.549C239.822 268.157 239.232 264.53 239.232 260.666C239.232 257.51 239.571 254.355 240.25 251.199C240.958 248.043 241.962 245.035 243.26 242.174C244.588 239.313 246.197 236.659 248.086 234.211C249.974 231.734 252.114 229.596 254.505 227.797C256.925 225.968 259.566 224.538 262.429 223.505C265.321 222.473 268.42 221.957 271.725 221.957C273.909 221.957 275.99 222.252 277.967 222.842C279.944 223.432 281.671 224.287 283.146 225.408C284.652 226.499 285.847 227.856 286.732 229.478C287.618 231.1 288.06 232.943 288.06 235.008C288.06 238.016 287.072 240.641 285.094 242.882C283.146 245.124 280.446 247.026 276.993 248.589C273.54 250.152 269.467 251.42 264.775 252.394C260.112 253.337 255.065 254.045 249.635 254.517V255.269C249.635 259.044 250.107 262.495 251.052 265.621C252.026 268.747 253.354 271.431 255.036 273.672C256.718 275.884 258.695 277.61 260.968 278.848C263.24 280.087 265.69 280.706 268.316 280.706C270.973 280.706 273.688 280.058 276.462 278.76C279.266 277.433 282.099 275.295 284.961 272.345ZM276.639 236.821C276.639 235.465 276.403 234.197 275.931 233.017C275.488 231.837 274.853 230.82 274.027 229.964C273.23 229.08 272.271 228.386 271.15 227.885C270.028 227.384 268.818 227.133 267.52 227.133C265.601 227.133 263.86 227.472 262.296 228.151C260.732 228.829 259.33 229.758 258.09 230.938C256.851 232.088 255.759 233.444 254.815 235.008C253.87 236.541 253.059 238.178 252.38 239.918C251.73 241.658 251.199 243.442 250.786 245.271C250.373 247.1 250.078 248.884 249.901 250.624C254.091 250.329 257.84 249.828 261.145 249.12C264.48 248.382 267.284 247.453 269.556 246.333C271.858 245.183 273.614 243.826 274.824 242.263C276.034 240.67 276.639 238.856 276.639 236.821Z" fill="white"/>
<path d="M295.63 226.735C297.667 226.057 299.6 225.437 301.429 224.877C303.259 224.316 304.927 223.845 306.432 223.461C307.937 223.048 309.235 222.739 310.327 222.532C311.449 222.326 312.319 222.222 312.939 222.222C313.854 222.222 314.71 222.355 315.507 222.621C316.333 222.886 317.115 223.402 317.853 224.169C318.62 224.936 319.358 225.998 320.066 227.354C320.804 228.711 321.542 230.466 322.28 232.619C323.165 235.214 324.051 237.677 324.936 240.007C325.821 242.307 326.677 244.607 327.504 246.908C329.392 243.162 331.266 239.756 333.126 236.689C335.014 233.592 336.903 230.967 338.792 228.814C340.71 226.632 342.643 224.951 344.591 223.771C346.569 222.562 348.59 221.957 350.656 221.957C351.984 221.957 353.15 222.164 354.153 222.576C355.157 222.96 355.998 223.476 356.677 224.125C357.385 224.774 357.901 225.54 358.226 226.425C358.58 227.28 358.757 228.165 358.757 229.08C358.757 230.318 358.447 231.557 357.827 232.796C357.208 234.005 356.263 235.037 354.994 235.892H354.64C354.109 235.244 353.548 234.727 352.958 234.344C352.397 233.931 351.822 233.621 351.231 233.415C350.641 233.179 350.051 233.032 349.461 232.973C348.9 232.884 348.354 232.84 347.823 232.84C346.082 232.84 344.399 233.341 342.776 234.344C341.183 235.317 339.633 236.689 338.128 238.458C336.623 240.198 335.147 242.263 333.701 244.652C332.285 247.041 330.868 249.651 329.451 252.482C330.838 256.287 332.107 259.634 333.258 262.524C334.439 265.415 335.546 267.921 336.579 270.045C337.612 272.139 338.615 273.894 339.589 275.309C340.563 276.725 341.551 277.86 342.555 278.716C343.558 279.571 344.606 280.176 345.698 280.53C346.79 280.883 347.985 281.06 349.284 281.06C350.169 281.06 350.981 281.031 351.718 280.972C352.486 280.913 353.224 280.824 353.932 280.706C354.67 280.559 355.437 280.367 356.234 280.131C357.031 279.895 357.916 279.6 358.89 279.247L359.775 281.768C358.359 282.741 356.839 283.641 355.216 284.467C353.592 285.263 351.955 285.941 350.302 286.502C348.649 287.092 347.026 287.534 345.432 287.829C343.868 288.153 342.407 288.316 341.05 288.316C339.131 288.316 337.405 287.844 335.87 286.9C334.365 285.986 332.919 284.526 331.532 282.52C330.174 280.485 328.802 277.905 327.415 274.778C326.028 271.623 324.493 267.833 322.811 263.409C320.716 267.125 318.635 270.531 316.569 273.628C314.533 276.725 312.482 279.394 310.416 281.635C308.35 283.847 306.269 285.573 304.174 286.811C302.108 288.05 300.013 288.669 297.888 288.669C296.589 288.669 295.453 288.493 294.479 288.139C293.505 287.785 292.694 287.313 292.044 286.723C291.395 286.133 290.908 285.455 290.584 284.688C290.229 283.892 290.052 283.066 290.052 282.211C290.052 281.208 290.274 280.19 290.716 279.158C291.159 278.126 291.823 277.138 292.708 276.194C294.302 276.784 295.719 277.197 296.958 277.433C298.227 277.669 299.378 277.787 300.411 277.787C302.3 277.787 304.115 277.315 305.856 276.371C307.597 275.427 309.294 274.1 310.947 272.39C312.6 270.649 314.238 268.555 315.861 266.108C317.484 263.66 319.122 260.932 320.775 257.923C320.243 256.508 319.697 255.048 319.137 253.544C318.606 252.04 318.03 250.462 317.41 248.81C316.791 247.129 316.141 245.359 315.462 243.501C314.784 241.614 314.061 239.608 313.293 237.485C312.615 235.686 311.936 234.226 311.257 233.105C310.608 231.955 309.899 231.056 309.132 230.407C308.394 229.758 307.583 229.315 306.697 229.08C305.841 228.844 304.882 228.726 303.82 228.726C302.875 228.726 301.754 228.844 300.455 229.08C299.186 229.286 297.799 229.551 296.294 229.876L295.63 226.735Z" fill="white"/>
<path d="M381.777 225.452C383.164 225.511 384.507 225.555 385.805 225.585C387.133 225.614 388.358 225.644 389.48 225.673C390.631 225.703 391.663 225.717 392.578 225.717C393.523 225.717 394.305 225.717 394.925 225.717C397.61 225.717 399.809 225.555 401.521 225.231C401.668 225.732 401.786 226.189 401.875 226.602C401.963 227.015 402.008 227.398 402.008 227.752C402.008 229.05 401.462 229.891 400.37 230.274C399.307 230.657 397.758 230.849 395.721 230.849C393.774 230.849 391.59 230.731 389.17 230.495C386.779 230.259 384.153 230.038 381.29 229.832C380.965 232.987 380.685 236.069 380.449 239.078C380.242 242.056 380.065 244.873 379.918 247.527C379.799 250.182 379.711 252.644 379.652 254.915C379.593 257.186 379.563 259.162 379.563 260.843C379.563 263.999 379.726 266.815 380.05 269.293C380.375 271.77 380.95 273.879 381.777 275.619C382.603 277.33 383.739 278.642 385.185 279.556C386.632 280.471 388.461 280.928 390.675 280.928C392.268 280.928 394.039 280.647 395.987 280.087C397.964 279.527 400.207 278.627 402.716 277.389C403.513 278.185 403.97 279.158 404.088 280.308C402.258 281.518 400.414 282.623 398.555 283.626C396.695 284.599 394.866 285.44 393.065 286.148C391.265 286.856 389.524 287.401 387.842 287.785C386.159 288.168 384.566 288.36 383.061 288.36C381.083 288.36 379.268 287.991 377.616 287.254C375.992 286.517 374.576 285.234 373.366 283.405C372.185 281.576 371.256 279.099 370.577 275.973C369.928 272.847 369.603 268.895 369.603 264.117C369.603 258.13 369.765 252.246 370.09 246.465C370.444 240.685 370.901 235.081 371.462 229.655C370.223 229.684 369.072 229.743 368.009 229.832C366.976 229.92 366.032 230.068 365.176 230.274C365.147 230.186 365.132 230.068 365.132 229.92V229.655C365.132 228.445 365.737 227.546 366.947 226.956C368.186 226.337 369.839 225.865 371.905 225.54C372.259 222.001 372.643 218.624 373.056 215.41C373.469 212.195 373.867 209.216 374.251 206.473C374.664 203.701 375.063 201.194 375.446 198.953C375.83 196.682 376.169 194.735 376.465 193.113C376.612 192.346 376.878 191.712 377.261 191.211C377.675 190.71 378.147 190.311 378.678 190.017C379.209 189.722 379.785 189.515 380.404 189.397C381.024 189.279 381.629 189.22 382.219 189.22C383.193 189.22 384.064 189.323 384.831 189.53C385.628 189.736 386.366 190.031 387.045 190.415C385.805 196.018 384.758 201.814 383.902 207.801C383.075 213.758 382.367 219.642 381.777 225.452Z" fill="white"/>
<path d="M223.237 359.171C222.176 359.628 221.196 360.026 220.298 360.365C219.414 360.689 218.589 360.954 217.822 361.16C217.056 361.381 216.342 361.543 215.679 361.646C215.016 361.75 214.375 361.801 213.756 361.801C212.916 361.801 212.179 361.639 211.546 361.315C210.912 361.005 210.382 360.49 209.955 359.768C209.542 359.046 209.233 358.096 209.026 356.917C208.82 355.738 208.717 354.279 208.717 352.541V350.596C208.717 349.682 208.717 348.629 208.717 347.436C208.732 346.227 208.746 344.953 208.761 343.612C208.776 342.257 208.791 340.879 208.805 339.479C208.835 338.08 208.864 336.731 208.894 335.435C208.923 334.123 208.953 332.901 208.982 331.766C209.012 330.632 209.041 329.666 209.071 328.871C209.144 327.147 209.225 325.43 209.314 323.721C209.417 321.997 209.549 320.31 209.711 318.66L209.535 318.594C209.284 319.257 208.982 320.016 208.628 320.87C208.275 321.71 207.825 322.727 207.28 323.92C205.984 326.779 204.658 329.74 203.302 332.805C201.961 335.869 200.599 339 199.214 342.198C197.843 345.38 196.458 348.614 195.059 351.9C193.659 355.171 192.267 358.442 190.882 361.713L189.799 361.668C189.489 360.667 189.113 359.488 188.671 358.132C188.229 356.762 187.743 355.289 187.213 353.712C186.682 352.121 186.115 350.449 185.511 348.695C184.922 346.927 184.318 345.144 183.699 343.347C183.08 341.535 182.454 339.73 181.82 337.932C181.201 336.135 180.597 334.403 180.008 332.738C179.433 331.074 178.881 329.512 178.35 328.053C177.835 326.58 177.371 325.268 176.958 324.119C176.487 322.778 176.074 321.592 175.72 320.561C175.381 319.53 175.087 318.616 174.836 317.82L174.682 317.887C174.682 318.329 174.682 318.771 174.682 319.213C174.696 319.64 174.704 320.104 174.704 320.605V324.252C174.704 326.594 174.667 328.989 174.593 331.435C174.52 333.866 174.424 336.267 174.306 338.639C174.188 340.997 174.048 343.281 173.886 345.491C173.724 347.701 173.554 349.741 173.378 351.613C173.23 353.16 173.09 354.478 172.958 355.569C172.84 356.644 172.7 357.55 172.538 358.287C172.391 359.024 172.206 359.606 171.985 360.033C171.764 360.446 171.484 360.762 171.146 360.983C170.821 361.204 170.416 361.344 169.93 361.403C169.458 361.462 168.891 361.492 168.228 361.492H167.565C167.433 361.492 167.27 361.484 167.079 361.47C166.887 361.47 166.652 361.462 166.372 361.447L166.062 361.226C166.755 359.797 167.366 358.206 167.897 356.453C168.442 354.685 168.913 352.813 169.311 350.839C169.724 348.865 170.077 346.824 170.372 344.717C170.667 342.595 170.91 340.481 171.101 338.374C171.308 336.267 171.47 334.19 171.588 332.142C171.72 330.094 171.816 328.149 171.875 326.307C171.934 324.465 171.971 322.764 171.985 321.202C172.015 319.64 172.03 318.277 172.03 317.113C172.03 316.362 171.978 315.743 171.875 315.257C171.772 314.771 171.588 314.387 171.322 314.108C171.072 313.813 170.718 313.614 170.261 313.511C169.819 313.393 169.245 313.334 168.538 313.334C168.051 313.334 167.492 313.371 166.858 313.444C166.224 313.503 165.525 313.592 164.758 313.71L164.515 311.765C167.212 311.146 169.429 310.689 171.168 310.395C172.906 310.085 174.291 309.93 175.323 309.93C175.853 309.93 176.31 309.982 176.693 310.085C177.076 310.174 177.407 310.336 177.687 310.571C177.982 310.792 178.24 311.094 178.461 311.478C178.682 311.846 178.896 312.31 179.102 312.87C179.883 315.05 180.708 317.371 181.577 319.832C182.446 322.292 183.33 324.804 184.229 327.368C185.143 329.932 186.049 332.503 186.948 335.081C187.861 337.645 188.738 340.135 189.578 342.551C189.902 343.509 190.196 344.386 190.462 345.181C190.742 345.962 190.992 346.691 191.213 347.369C191.449 348.032 191.662 348.673 191.854 349.292C192.06 349.896 192.252 350.5 192.429 351.104H192.583C192.819 350.471 193.062 349.852 193.313 349.248C193.563 348.629 193.828 347.995 194.108 347.347C194.388 346.684 194.69 345.977 195.014 345.225C195.353 344.474 195.729 343.627 196.142 342.684C197.173 340.326 198.241 337.881 199.346 335.346C200.466 332.812 201.608 330.219 202.772 327.567C203.95 324.915 205.144 322.226 206.352 319.5C207.56 316.774 208.776 314.041 209.999 311.301C210.131 311.006 210.308 310.763 210.529 310.571C210.765 310.38 211.015 310.232 211.281 310.129C211.561 310.011 211.848 309.93 212.143 309.886C212.437 309.842 212.71 309.82 212.96 309.82C213.388 309.82 213.852 309.879 214.353 309.997C214.868 310.1 215.362 310.255 215.833 310.461C215.612 312.877 215.413 315.19 215.237 317.401C215.075 319.611 214.935 321.762 214.817 323.854C214.699 325.946 214.596 328.016 214.507 330.064C214.419 332.098 214.353 334.153 214.308 336.23C214.264 338.308 214.227 340.43 214.198 342.595C214.183 344.761 214.176 347.023 214.176 349.38C214.176 350.942 214.242 352.276 214.375 353.381C214.507 354.486 214.736 355.392 215.06 356.099C215.399 356.792 215.848 357.3 216.408 357.624C216.968 357.948 217.668 358.11 218.508 358.11C218.817 358.11 219.112 358.103 219.392 358.088C219.686 358.073 219.988 358.044 220.298 358C220.607 357.941 220.946 357.86 221.314 357.757C221.697 357.653 222.132 357.521 222.618 357.359L223.237 359.171Z" fill="white"/>
<path d="M231.392 319.721C230.877 319.721 230.42 319.618 230.022 319.412C229.624 319.191 229.285 318.911 229.005 318.572C228.726 318.218 228.512 317.82 228.365 317.378C228.217 316.922 228.144 316.458 228.144 315.986C228.144 315.323 228.254 314.741 228.475 314.24C228.696 313.724 228.983 313.297 229.337 312.958C229.691 312.605 230.081 312.347 230.508 312.185C230.936 312.008 231.356 311.92 231.768 311.92C232.269 311.92 232.718 312.015 233.116 312.207C233.514 312.384 233.853 312.634 234.133 312.958C234.428 313.282 234.649 313.658 234.796 314.085C234.958 314.498 235.039 314.947 235.039 315.434C235.039 315.949 234.951 316.465 234.774 316.981C234.597 317.482 234.346 317.938 234.022 318.351C233.713 318.763 233.33 319.095 232.873 319.345C232.431 319.596 231.937 319.721 231.392 319.721ZM233.315 329.711C233.065 331.39 232.851 333.077 232.674 334.772C232.497 336.451 232.35 338.08 232.232 339.656C232.129 341.233 232.048 342.728 231.989 344.143C231.945 345.542 231.923 346.809 231.923 347.944C231.923 349.476 231.945 350.795 231.989 351.9C232.033 352.99 232.107 353.911 232.21 354.663C232.313 355.414 232.438 356.018 232.586 356.475C232.748 356.917 232.939 357.263 233.16 357.514C233.396 357.749 233.661 357.904 233.956 357.978C234.265 358.051 234.612 358.088 234.995 358.088C235.702 358.088 236.461 357.985 237.271 357.779C238.096 357.558 238.929 357.256 239.769 356.873L240.188 358.022C239.658 358.449 238.988 358.884 238.177 359.326C237.382 359.768 236.542 360.173 235.658 360.541C234.774 360.91 233.904 361.204 233.05 361.425C232.21 361.661 231.481 361.779 230.862 361.779C230.449 361.779 230.074 361.742 229.735 361.668C229.396 361.61 229.086 361.447 228.807 361.182C228.541 360.917 228.298 360.527 228.077 360.011C227.871 359.495 227.694 358.795 227.547 357.911C227.414 357.027 227.311 355.922 227.237 354.596C227.164 353.27 227.127 351.664 227.127 349.778C227.127 348.673 227.134 347.428 227.149 346.043C227.178 344.643 227.215 343.148 227.259 341.557C227.304 339.951 227.363 338.264 227.436 336.496C227.51 334.713 227.606 332.878 227.724 330.993C227.753 330.58 227.864 330.248 228.055 329.998C228.247 329.733 228.482 329.534 228.762 329.401C229.042 329.254 229.337 329.158 229.646 329.114C229.971 329.055 230.265 329.026 230.53 329.026C231.518 329.026 232.446 329.254 233.315 329.711Z" fill="white"/>
<path d="M245.272 352.828C245.375 353.948 245.669 354.913 246.156 355.723C246.657 356.534 247.268 357.197 247.99 357.712C248.712 358.228 249.508 358.611 250.377 358.862C251.261 359.112 252.138 359.237 253.007 359.237C253.817 359.237 254.598 359.127 255.35 358.906C256.101 358.685 256.764 358.368 257.339 357.956C257.913 357.543 258.37 357.035 258.709 356.431C259.063 355.826 259.239 355.149 259.239 354.397C259.239 353.616 259.055 352.931 258.687 352.342C258.319 351.753 257.825 351.215 257.206 350.729C256.587 350.242 255.865 349.793 255.04 349.38C254.23 348.968 253.383 348.548 252.499 348.121C251.718 347.752 250.929 347.384 250.134 347.016C249.353 346.633 248.594 346.22 247.857 345.778C247.121 345.336 246.428 344.857 245.78 344.341C245.146 343.826 244.587 343.258 244.1 342.64C243.629 342.006 243.253 341.306 242.973 340.54C242.708 339.759 242.575 338.897 242.575 337.954C242.575 336.938 242.752 336.002 243.106 335.147C243.459 334.293 243.938 333.527 244.542 332.849C245.161 332.157 245.868 331.552 246.664 331.037C247.474 330.521 248.336 330.094 249.25 329.755C250.163 329.401 251.099 329.143 252.057 328.981C253.029 328.805 253.972 328.716 254.886 328.716C256.064 328.716 257.177 328.849 258.223 329.114C259.284 329.364 260.204 329.74 260.985 330.241C261.781 330.727 262.407 331.324 262.864 332.031C263.335 332.738 263.571 333.534 263.571 334.418C263.571 334.757 263.512 335.125 263.394 335.523C263.276 335.921 263.078 336.297 262.798 336.65C262.518 336.989 262.149 337.277 261.693 337.512C261.236 337.748 260.676 337.873 260.013 337.888C259.394 337.888 258.746 337.792 258.068 337.601L258.002 337.38C258.208 336.908 258.355 336.474 258.444 336.076C258.532 335.678 258.576 335.31 258.576 334.971C258.562 334.293 258.385 333.726 258.046 333.269C257.722 332.797 257.309 332.414 256.808 332.12C256.307 331.825 255.747 331.611 255.129 331.479C254.525 331.346 253.928 331.28 253.338 331.28C252.292 331.28 251.357 331.42 250.532 331.7C249.707 331.98 249.007 332.355 248.432 332.827C247.872 333.284 247.438 333.807 247.128 334.396C246.833 334.985 246.686 335.597 246.686 336.23C246.686 337.041 246.9 337.77 247.327 338.418C247.754 339.052 248.322 339.641 249.029 340.186C249.736 340.717 250.546 341.218 251.46 341.689C252.388 342.161 253.353 342.632 254.355 343.104C255.475 343.634 256.587 344.187 257.692 344.761C258.797 345.321 259.785 345.962 260.654 346.684C261.523 347.406 262.223 348.239 262.753 349.182C263.299 350.11 263.571 351.207 263.571 352.475C263.571 353.992 263.232 355.34 262.554 356.519C261.891 357.698 261 358.692 259.88 359.503C258.761 360.313 257.471 360.924 256.013 361.337C254.569 361.764 253.066 361.978 251.504 361.978C250.723 361.978 249.913 361.919 249.073 361.801C248.248 361.683 247.445 361.506 246.664 361.271C245.883 361.035 245.139 360.748 244.432 360.409C243.739 360.055 243.128 359.657 242.597 359.215C242.082 358.759 241.669 358.258 241.36 357.712C241.065 357.153 240.918 356.541 240.918 355.878C240.918 355.303 241.036 354.817 241.271 354.419C241.522 354.022 241.846 353.697 242.244 353.447C242.642 353.196 243.084 353.012 243.57 352.894C244.071 352.762 244.579 352.688 245.095 352.673L245.272 352.828Z" fill="white"/>
<path d="M271.527 352.828C271.631 353.948 271.925 354.913 272.411 355.723C272.912 356.534 273.524 357.197 274.246 357.712C274.968 358.228 275.763 358.611 276.633 358.862C277.517 359.112 278.393 359.237 279.263 359.237C280.073 359.237 280.854 359.127 281.605 358.906C282.357 358.685 283.02 358.368 283.594 357.956C284.169 357.543 284.626 357.035 284.965 356.431C285.318 355.826 285.495 355.149 285.495 354.397C285.495 353.616 285.311 352.931 284.943 352.342C284.574 351.753 284.081 351.215 283.462 350.729C282.843 350.242 282.121 349.793 281.296 349.38C280.486 348.968 279.638 348.548 278.754 348.121C277.973 347.752 277.185 347.384 276.39 347.016C275.609 346.633 274.85 346.22 274.113 345.778C273.377 345.336 272.684 344.857 272.036 344.341C271.402 343.826 270.842 343.258 270.356 342.64C269.885 342.006 269.509 341.306 269.229 340.54C268.964 339.759 268.831 338.897 268.831 337.954C268.831 336.938 269.008 336.002 269.362 335.147C269.715 334.293 270.194 333.527 270.798 332.849C271.417 332.157 272.124 331.552 272.92 331.037C273.73 330.521 274.592 330.094 275.506 329.755C276.419 329.401 277.355 329.143 278.312 328.981C279.285 328.805 280.228 328.716 281.141 328.716C282.32 328.716 283.432 328.849 284.479 329.114C285.539 329.364 286.46 329.74 287.241 330.241C288.037 330.727 288.663 331.324 289.12 332.031C289.591 332.738 289.827 333.534 289.827 334.418C289.827 334.757 289.768 335.125 289.65 335.523C289.532 335.921 289.333 336.297 289.053 336.65C288.773 336.989 288.405 337.277 287.948 337.512C287.492 337.748 286.932 337.873 286.269 337.888C285.65 337.888 285.002 337.792 284.324 337.601L284.257 337.38C284.464 336.908 284.611 336.474 284.7 336.076C284.788 335.678 284.832 335.31 284.832 334.971C284.817 334.293 284.641 333.726 284.302 333.269C283.978 332.797 283.565 332.414 283.064 332.12C282.563 331.825 282.003 331.611 281.384 331.479C280.78 331.346 280.184 331.28 279.594 331.28C278.548 331.28 277.613 331.42 276.787 331.7C275.962 331.98 275.262 332.355 274.688 332.827C274.128 333.284 273.693 333.807 273.384 334.396C273.089 334.985 272.942 335.597 272.942 336.23C272.942 337.041 273.156 337.77 273.583 338.418C274.01 339.052 274.577 339.641 275.285 340.186C275.992 340.717 276.802 341.218 277.716 341.689C278.644 342.161 279.609 342.632 280.611 343.104C281.731 343.634 282.843 344.187 283.948 344.761C285.053 345.321 286.04 345.962 286.91 346.684C287.779 347.406 288.479 348.239 289.009 349.182C289.554 350.11 289.827 351.207 289.827 352.475C289.827 353.992 289.488 355.34 288.81 356.519C288.147 357.698 287.256 358.692 286.136 359.503C285.016 360.313 283.727 360.924 282.268 361.337C280.825 361.764 279.322 361.978 277.76 361.978C276.979 361.978 276.169 361.919 275.329 361.801C274.504 361.683 273.701 361.506 272.92 361.271C272.139 361.035 271.395 360.748 270.688 360.409C269.995 360.055 269.384 359.657 268.853 359.215C268.338 358.759 267.925 358.258 267.616 357.712C267.321 357.153 267.174 356.541 267.174 355.878C267.174 355.303 267.291 354.817 267.527 354.419C267.778 354.022 268.102 353.697 268.5 353.447C268.897 353.196 269.339 353.012 269.826 352.894C270.327 352.762 270.835 352.688 271.351 352.673L271.527 352.828Z" fill="white"/>
<path d="M301.319 319.721C300.804 319.721 300.347 319.618 299.949 319.412C299.551 319.191 299.212 318.911 298.932 318.572C298.652 318.218 298.439 317.82 298.292 317.378C298.144 316.922 298.071 316.458 298.071 315.986C298.071 315.323 298.181 314.741 298.402 314.24C298.623 313.724 298.91 313.297 299.264 312.958C299.618 312.605 300.008 312.347 300.435 312.185C300.863 312.008 301.283 311.92 301.695 311.92C302.196 311.92 302.645 312.015 303.043 312.207C303.441 312.384 303.78 312.634 304.06 312.958C304.355 313.282 304.576 313.658 304.723 314.085C304.885 314.498 304.966 314.947 304.966 315.434C304.966 315.949 304.878 316.465 304.701 316.981C304.524 317.482 304.273 317.938 303.949 318.351C303.64 318.763 303.257 319.095 302.8 319.345C302.358 319.596 301.864 319.721 301.319 319.721ZM303.242 329.711C302.992 331.39 302.778 333.077 302.601 334.772C302.424 336.451 302.277 338.08 302.159 339.656C302.056 341.233 301.975 342.728 301.916 344.143C301.872 345.542 301.85 346.809 301.85 347.944C301.85 349.476 301.872 350.795 301.916 351.9C301.96 352.99 302.034 353.911 302.137 354.663C302.24 355.414 302.365 356.018 302.513 356.475C302.675 356.917 302.866 357.263 303.087 357.514C303.323 357.749 303.588 357.904 303.883 357.978C304.192 358.051 304.539 358.088 304.922 358.088C305.629 358.088 306.388 357.985 307.198 357.779C308.023 357.558 308.856 357.256 309.696 356.873L310.115 358.022C309.585 358.449 308.915 358.884 308.104 359.326C307.309 359.768 306.469 360.173 305.585 360.541C304.701 360.91 303.831 361.204 302.977 361.425C302.137 361.661 301.408 361.779 300.789 361.779C300.376 361.779 300.001 361.742 299.662 361.668C299.323 361.61 299.013 361.447 298.734 361.182C298.468 360.917 298.225 360.527 298.004 360.011C297.798 359.495 297.621 358.795 297.474 357.911C297.341 357.027 297.238 355.922 297.164 354.596C297.091 353.27 297.054 351.664 297.054 349.778C297.054 348.673 297.061 347.428 297.076 346.043C297.105 344.643 297.142 343.148 297.186 341.557C297.231 339.951 297.29 338.264 297.363 336.496C297.437 334.713 297.533 332.878 297.651 330.993C297.68 330.58 297.791 330.248 297.982 329.998C298.174 329.733 298.409 329.534 298.689 329.401C298.969 329.254 299.264 329.158 299.573 329.114C299.898 329.055 300.192 329.026 300.457 329.026C301.445 329.026 302.373 329.254 303.242 329.711Z" fill="white"/>
<path d="M311.751 348.099C311.751 346.61 311.906 345.1 312.215 343.568C312.524 342.036 312.981 340.555 313.585 339.126C314.189 337.682 314.933 336.334 315.817 335.081C316.716 333.814 317.748 332.709 318.912 331.766C320.076 330.823 321.372 330.079 322.801 329.534C324.231 328.989 325.785 328.716 327.465 328.716C329.351 328.716 331.015 329.114 332.459 329.91C333.918 330.705 335.141 331.759 336.128 333.07C337.115 334.367 337.859 335.847 338.36 337.512C338.876 339.177 339.134 340.879 339.134 342.618C339.134 344.106 338.979 345.616 338.67 347.148C338.36 348.681 337.896 350.169 337.277 351.613C336.673 353.042 335.922 354.39 335.023 355.657C334.139 356.909 333.115 358.007 331.951 358.95C330.787 359.893 329.491 360.637 328.061 361.182C326.632 361.727 325.078 362 323.398 362C321.512 362 319.84 361.602 318.381 360.807C316.937 360.011 315.722 358.965 314.735 357.668C313.762 356.357 313.018 354.869 312.502 353.204C312.001 351.539 311.751 349.837 311.751 348.099ZM317.033 345.999C317.033 347.001 317.107 348.018 317.254 349.049C317.416 350.08 317.659 351.075 317.983 352.033C318.307 352.99 318.705 353.889 319.177 354.729C319.663 355.554 320.23 356.276 320.879 356.895C321.542 357.514 322.278 358 323.089 358.353C323.914 358.707 324.82 358.884 325.807 358.884C326.883 358.884 327.826 358.655 328.636 358.199C329.461 357.727 330.168 357.108 330.758 356.342C331.362 355.576 331.855 354.699 332.238 353.712C332.636 352.725 332.953 351.708 333.189 350.662C333.424 349.601 333.587 348.555 333.675 347.524C333.778 346.493 333.83 345.542 333.83 344.673C333.83 343.656 333.749 342.64 333.587 341.623C333.439 340.592 333.203 339.604 332.879 338.662C332.555 337.704 332.15 336.812 331.664 335.987C331.192 335.147 330.625 334.426 329.962 333.821C329.314 333.203 328.577 332.716 327.752 332.363C326.942 332.009 326.043 331.832 325.056 331.832C323.98 331.832 323.03 332.061 322.205 332.517C321.394 332.974 320.687 333.586 320.083 334.352C319.494 335.118 319 335.995 318.602 336.982C318.219 337.969 317.91 338.986 317.674 340.032C317.438 341.078 317.269 342.124 317.166 343.17C317.077 344.201 317.033 345.144 317.033 345.999Z" fill="white"/>
<path d="M348.284 335.391C348.284 334.787 348.239 334.278 348.151 333.866C348.063 333.453 347.923 333.129 347.731 332.893C347.554 332.643 347.326 332.466 347.046 332.363C346.766 332.26 346.434 332.208 346.051 332.208C345.521 332.208 344.887 332.282 344.151 332.429C343.414 332.576 342.574 332.775 341.631 333.026L341.3 331.435C342.346 331.066 343.348 330.735 344.305 330.44C345.278 330.131 346.169 329.865 346.98 329.644C347.79 329.423 348.505 329.254 349.123 329.136C349.742 329.018 350.228 328.959 350.582 328.959C351.437 328.959 352.1 329.217 352.571 329.733C353.057 330.234 353.3 331.103 353.3 332.341C353.3 332.488 353.286 332.834 353.256 333.379C353.227 333.91 353.183 334.588 353.124 335.413C353.079 336.238 353.021 337.188 352.947 338.264C352.873 339.325 352.785 340.459 352.682 341.667C352.593 342.875 352.49 344.128 352.372 345.424C352.254 346.706 352.129 347.988 351.997 349.27L352.129 349.292C353.249 345.491 354.45 342.286 355.732 339.678C357.013 337.056 358.317 334.934 359.643 333.313C360.969 331.678 362.288 330.499 363.599 329.777C364.911 329.055 366.163 328.694 367.357 328.694C368.182 328.694 368.977 328.849 369.743 329.158C370.51 329.468 371.187 329.961 371.777 330.639C372.381 331.317 372.86 332.193 373.213 333.269C373.567 334.33 373.744 335.619 373.744 337.137C373.744 337.579 373.714 338.175 373.655 338.927C373.611 339.663 373.552 340.489 373.479 341.402C373.405 342.316 373.316 343.288 373.213 344.319C373.125 345.336 373.044 346.338 372.97 347.325C372.897 348.312 372.83 349.255 372.771 350.154C372.727 351.038 372.705 351.812 372.705 352.475C372.705 353.624 372.749 354.559 372.838 355.281C372.941 356.003 373.103 356.578 373.324 357.005C373.545 357.418 373.839 357.705 374.208 357.867C374.576 358.014 375.026 358.088 375.556 358.088C376.322 358.088 377.118 357.985 377.943 357.779C378.768 357.558 379.6 357.256 380.44 356.873L380.86 358.022C380.33 358.449 379.659 358.884 378.849 359.326C378.039 359.768 377.184 360.173 376.285 360.541C375.401 360.91 374.517 361.204 373.633 361.425C372.749 361.661 371.968 361.779 371.291 361.779C370.495 361.779 369.869 361.565 369.412 361.138C368.955 360.711 368.609 360.129 368.373 359.392C368.152 358.655 368.005 357.793 367.931 356.806C367.872 355.819 367.843 354.758 367.843 353.624C367.843 352.239 367.887 350.817 367.975 349.358C368.079 347.885 368.189 346.485 368.307 345.159C368.425 343.833 368.528 342.632 368.616 341.557C368.719 340.466 368.771 339.597 368.771 338.949C368.771 337.225 368.447 335.958 367.799 335.147C367.15 334.322 366.288 333.91 365.213 333.91C364.358 333.91 363.459 334.271 362.516 334.993C361.574 335.715 360.631 336.709 359.688 337.976C358.759 339.229 357.861 340.717 356.991 342.441C356.137 344.15 355.363 346.006 354.671 348.01C353.978 349.999 353.404 352.084 352.947 354.265C352.49 356.445 352.203 358.626 352.085 360.807L347.466 361.381L347.112 361.359C347.23 359.959 347.341 358.434 347.444 356.784C347.547 355.134 347.643 353.462 347.731 351.767C347.819 350.058 347.893 348.371 347.952 346.706C348.026 345.027 348.085 343.465 348.129 342.021C348.188 340.562 348.225 339.258 348.239 338.109C348.269 336.96 348.284 336.054 348.284 335.391Z" fill="white"/>
<defs>
<filter id="filter0_di_209_125" x="0" y="0" width="545" height="545" filterUnits="userSpaceOnUse" color-interpolation-filters="sRGB">
<feFlood flood-opacity="0" result="BackgroundImageFix"/>
<feColorMatrix in="SourceAlpha" type="matrix" values="0 0 0 0 0 0 0 0 0 0 0 0 0 0 0 0 0 0 127 0" result="hardAlpha"/>
<feOffset/>
<feGaussianBlur stdDeviation="20"/>
<feComposite in2="hardAlpha" operator="out"/>
<feColorMatrix type="matrix" values="0 0 0 0 0.795833 0 0 0 0 0.975879 0 0 0 0 1 0 0 0 1 0"/>
<feBlend mode="normal" in2="BackgroundImageFix" result="effect1_dropShadow_209_125"/>
<feBlend mode="normal" in="SourceGraphic" in2="effect1_dropShadow_209_125" result="shape"/>
<feColorMatrix in="SourceAlpha" type="matrix" values="0 0 0 0 0 0 0 0 0 0 0 0 0 0 0 0 0 0 127 0" result="hardAlpha"/>
<feMorphology radius="9" operator="erode" in="SourceAlpha" result="effect2_innerShadow_209_125"/>
<feOffset dx="9" dy="-7"/>
<feGaussianBlur stdDeviation="14.65"/>
<feComposite in2="hardAlpha" operator="arithmetic" k2="-1" k3="1"/>
<feColorMatrix type="matrix" values="0 0 0 0 0 0 0 0 0 0 0 0 0 0 0 0 0 0 0.25 0"/>
<feBlend mode="normal" in2="shape" result="effect2_innerShadow_209_125"/>
</filter>
<linearGradient id="paint0_linear_209_125" x1="272.5" y1="40" x2="272.5" y2="505" gradientUnits="userSpaceOnUse">
<stop stop-color="#00D1ED"/>
<stop offset="1" stop-color="#0A3444"/>
</linearGradient>
</defs>
</svg>
